<mxfile host="app.diagrams.net" modified="2023-04-08T03:53:10.174Z" agent="Mozilla/5.0 (Windows NT 10.0; Win64; x64) AppleWebKit/537.36 (KHTML, like Gecko) Chrome/111.0.0.0 Safari/537.36" version="21.1.0" etag="e7gKJm88Ejq9_VvvM1Jy" type="github">
  <diagram name="Page-1" id="mof8gYAs7Xq324GFnNmk">
    <mxGraphModel>
      <root>
        <mxCell id="0" />
        <mxCell id="1" parent="0" />
      </root>
    </mxGraphModel>
  </diagram>
</mxfile>
